<svg id="Layer_1" data-name="Layer 1" xmlns="http://www.w3.org/2000/svg" viewBox="0 0 200 22.18"><defs><style>.cls-1{fill:#78949b;}</style></defs><path class="cls-1" d="M112.25,11.46v7.13h0v0l-.23-.13a8.8,8.8,0,0,0-5.74-2c-5.12,0-8.33,3.49-8.33,8.21a8,8,0,0,0,8.21,8.39,8.24,8.24,0,0,0,6.17-2.53v2h3.53V11.46Zm0,16.26h0l-.51.4-.25.18-.29.22-.3.2-.27.18a3.54,3.54,0,0,1-.33.19l-.28.15-.38.18-.27.12-.44.14-.28.09-.51.1-.27.05a6.49,6.49,0,0,1-.88,0,4.43,4.43,0,0,1-.63,0h-.17a2.67,2.67,0,0,1-.48-.08l-.15,0a5.45,5.45,0,0,1-1.17-.42l-.1-.05a5,5,0,0,1-.5-.29l-.05,0a4.4,4.4,0,0,1-1-.87l0,0a5.3,5.3,0,0,1-.39-.54,5.36,5.36,0,0,1-.74-2.82,6.51,6.51,0,0,1,.06-.88,4.79,4.79,0,0,1,1.88-3.24l0,0,.31-.21.1-.06.28-.16.15-.07.27-.12.19-.08.26-.09.22-.06.24-.06.26-.06.21,0,.32,0h1.25l.35,0,.16,0,.26,0,.14,0a1.31,1.31,0,0,1,.27.06l.12,0,.25.07.11,0,.25.09.11.05.24.09.1.05.21.1.11.06.2.11a.47.47,0,0,1,.09.06l.2.11.09.06.18.11.09.07.17.12.08.06.16.12.09.07.14.11.09.07.34.28v6.06Z" transform="translate(-97.95 -10.87)"/><path class="cls-1" d="M135.29,22.2c0-2.14-.15-5.79-7.65-5.78-2.9,0-7,.74-7.9,5h3.73c.21-.83.9-2.05,4.2-2.06,3,0,4,.84,4,2V22h0l-.21,0c-5,.29-12.6,1.11-12.6,6.27,0,3.83,4,4.69,6,4.69A13.08,13.08,0,0,0,131.68,31h0a7.59,7.59,0,0,0,.2,1.57h3.68a7.1,7.1,0,0,1-.29-2.53Zm-3.59,6h0l-.55.33-.27.15-.36.2-.45.22-.25.11c-.18.09-.38.17-.57.25l-.19.07-.56.19-.26.09a5.54,5.54,0,0,1-.55.14l-.33.09c-.2,0-.42.06-.63.09s-.21,0-.31.05c-.33,0-.65.05-1,.06a3.77,3.77,0,0,1-.58,0,2,2,0,0,1-.34-.06l-.14,0A3.54,3.54,0,0,1,124,30h0a2.5,2.5,0,0,1-.35-.21h0a1.9,1.9,0,0,1-.78-1.68,2,2,0,0,1,.47-1.3h0a3.83,3.83,0,0,1,.29-.28l.12-.09.28-.19.26-.13.34-.16.25-.11.36-.12.24-.07a6.75,6.75,0,0,1,.68-.18,28.47,28.47,0,0,1,5.43-.8h.17V28.2Z" transform="translate(-97.95 -10.87)"/><polygon class="cls-1" points="116.23 5.95 112.41 5.95 107.22 17.48 101.96 5.97 98.02 5.97 105.37 21.51 108.96 21.51 109.01 21.38 109.01 21.38 116.35 5.95 116.23 5.95 116.23 5.95"/><path class="cls-1" d="M274.59,29.84a4.6,4.6,0,0,1-2.6-1.66A4.13,4.13,0,0,0,274.59,29.84Z" transform="translate(-97.95 -10.87)"/><path class="cls-1" d="M275.48,16.35c-5.73,0-8.62,3.87-8.61,8.27a6.19,6.19,0,0,0,0,.75h0c0,.26.05.5.09.75v.09a6.4,6.4,0,0,0,.14.66l0,.15a5.76,5.76,0,0,0,.18.59l.06.17c.07.19.14.36.22.53l.09.2c.08.16.17.32.26.48l.12.21c.09.14.18.28.28.42l.17.22a3.31,3.31,0,0,0,.31.36l.2.22c.07.07.21.22.33.32l.24.22.35.27.29.21c.12.08.24.16.37.23l.33.19.38.19.39.16c.13,0,.25.11.38.15l.45.14.38.11.51.11.37.08.61.07.33,0c.32,0,.65,0,1,0,5.76,0,7.84-3.92,8.08-5.2h-3.94a2,2,0,0,1-.22.41.91.91,0,0,1-.11.16l-.18.23-.18.19-.17.16a2.43,2.43,0,0,1-.25.2l-.14.09a5.08,5.08,0,0,1-2,.77c-.13,0-.26,0-.39.05l-.63,0c-.27,0-.54,0-.81-.07h0c-.23,0-.47-.08-.7-.14l-.47-.14-.26-.1-.23-.1-.23-.11-.23-.14-.27-.18-.23-.17-.14-.13-.18-.17-.13-.13-.23-.28h0a5.54,5.54,0,0,1-1-2.53h13.64C284.12,20,281.31,16.4,275.48,16.35Zm-4.85,6.53a4.27,4.27,0,0,1,3.94-3.58c.29,0,.6-.05.86-.05h.4a4.37,4.37,0,0,1,4.39,3.57h.1v0Z" transform="translate(-97.95 -10.87)"/><path class="cls-1" d="M154.63,22.49a7.86,7.86,0,0,0,0-.85,6.64,6.64,0,0,0-.73-2.66,4.46,4.46,0,0,0-.67-.94,5.05,5.05,0,0,0-2.34-1.36,7.17,7.17,0,0,0-1.72-.27h-.6a8.62,8.62,0,0,0-2.52.35l-.41.14c-.25.1-.5.21-.74.33a6.36,6.36,0,0,0-.93.59,4.67,4.67,0,0,0-.53.42c-.17.14-.42.37-.61.55l-.06.07h0V16.91H139.2l0,15.55h3.59V21.75l0-.05a6.74,6.74,0,0,1,1.3-1.26h0A5.41,5.41,0,0,1,145,20a6.67,6.67,0,0,1,2.72-.5h.47a2.8,2.8,0,0,1,1.88.76,1.64,1.64,0,0,1,.21.25,3,3,0,0,1,.48,1,7.59,7.59,0,0,1,.29,2.37v8.64h3.59Z" transform="translate(-97.95 -10.87)"/><path class="cls-1" d="M251.74,22.49a7.86,7.86,0,0,0,0-.85A6.49,6.49,0,0,0,251,19a4.46,4.46,0,0,0-.67-.94,4.69,4.69,0,0,0-1.81-1.19c-.17-.07-.35-.12-.51-.17a7.62,7.62,0,0,0-1.71-.27h-.6a8.32,8.32,0,0,0-2.53.35l-.41.14a7.23,7.23,0,0,0-1.68.92,4.26,4.26,0,0,0-.5.42c-.14.14-.42.37-.6.55l-.07.07h0V16.91h-3.54V32.46h3.59V21.75l0-.05a6.54,6.54,0,0,1,1.26-1.26h0a4.86,4.86,0,0,1,1-.53,6.2,6.2,0,0,1,1.14-.32,7.63,7.63,0,0,1,1.44-.11h.47a2.8,2.8,0,0,1,1.88.76,2.62,2.62,0,0,1,.22.25,4,4,0,0,1,.66,1.79,11.39,11.39,0,0,1,.11,1.54v8.64h3.6Z" transform="translate(-97.95 -10.87)"/><rect class="cls-1" x="158.8" y="16.89" width="3.59" height="15.55" transform="translate(-97.99 -10.65) rotate(-0.08)"/><rect class="cls-1" x="158.78" y="10.87" width="3.59" height="3.19" transform="translate(-97.97 -10.65) rotate(-0.08)"/><rect class="cls-1" x="186.16" y="11.36" width="3.59" height="21.05" transform="translate(-97.99 -10.61) rotate(-0.08)"/><path class="cls-1" d="M169.48,25.66h13.45c0-5.62-2.82-9.24-8.67-9.29s-8.63,3.87-8.62,8.27a6.35,6.35,0,0,0,0,.76h0c0,.25.05.5.09.74v.09c0,.23.09.45.14.66a.8.8,0,0,0,0,.15c.06.2.12.4.19.59l.06.17c.06.19.14.36.21.53l.09.2c.08.16.17.32.26.48l.12.21c0,.07.19.28.29.42l.16.22.31.36.2.22.33.32a2.18,2.18,0,0,0,.25.22l.35.27.28.21.37.23.34.19c.11.06.24.13.38.19l.38.16c.14.05.26.11.39.15l.44.14a3.31,3.31,0,0,0,.39.11l.5.11.38.08.61.07.33,0c.32,0,.65,0,1,0,5.76,0,7.83-3.92,8.08-5.2h-3.94a2.67,2.67,0,0,1-.22.41,1,1,0,0,1-.12.16c0,.08-.11.15-.17.23l-.18.19-.18.16a2.43,2.43,0,0,1-.25.2l-.14.09a5,5,0,0,1-2,.77c-.12,0-.25,0-.38.05l-.63,0c-.27,0-.54,0-.81-.07h0c-.23,0-.47-.08-.7-.14l-.47-.14-.26-.1-.23-.1-.23-.11-.23-.14-.27-.18-.23-.17-.15-.13-.17-.17-.13-.13-.23-.28h0a5.53,5.53,0,0,1-1-2.53Zm3.87-6.36c.29,0,.59-.05.85-.05h.41A4.36,4.36,0,0,1,179,22.82h.1v0h-9.7A4.3,4.3,0,0,1,173.35,19.3Z" transform="translate(-97.95 -10.87)"/><path class="cls-1" d="M219.67,25.66h13.45c0-5.62-2.83-9.24-8.67-9.29s-8.63,3.87-8.62,8.27a6.35,6.35,0,0,0,0,.76h0a4.53,4.53,0,0,0,.09.74v.09c0,.23.09.45.14.66a.8.8,0,0,0,0,.15c0,.2.11.39.18.59l.06.17c.07.19.14.36.22.53l.09.2c.08.16.16.32.25.48l.13.21c0,.07.18.28.28.42l.17.22.3.36a2.39,2.39,0,0,0,.21.22,3.45,3.45,0,0,0,.33.32l.24.22.35.27.29.21c.1.06.24.16.37.23l.33.19.38.19.39.16c.13.05.25.11.39.15l.44.14.38.11.51.11.37.08.62.07.32,0c.32,0,.65,0,1,0,5.76,0,7.84-3.92,8.08-5.2h-3.93a2.71,2.71,0,0,1-.23.41.91.91,0,0,1-.11.16,2.15,2.15,0,0,1-.18.23l-.18.19-.17.16-.26.2-.13.09a4.94,4.94,0,0,1-2,.77c-.13,0-.26,0-.39.05s-.41,0-.62,0-.55,0-.83-.07h0c-.24,0-.47-.08-.7-.14l-.47-.14-.26-.1-.23-.1-.23-.11-.23-.14-.27-.18a1.84,1.84,0,0,1-.22-.17l-.15-.13-.18-.17-.12-.13c-.09-.09-.16-.19-.24-.28h0a5.54,5.54,0,0,1-1-2.53Zm3.87-6.36c.29,0,.6-.05.86-.05h.4a4.35,4.35,0,0,1,4.38,3.57h.1v0h-9.69A4.29,4.29,0,0,1,223.54,19.3Z" transform="translate(-97.95 -10.87)"/><path class="cls-1" d="M291.57,21.81c0-.08.09-.16.14-.24l.07-.12a1.33,1.33,0,0,1,.14-.19l.07-.09a3,3,0,0,1,.25-.25l.09-.08a3.65,3.65,0,0,1,.31-.24l0,0a2.08,2.08,0,0,1,.36-.2l.09-.05a3.66,3.66,0,0,1,.46-.18l.09,0a4.05,4.05,0,0,1,.5-.12h.09a4.44,4.44,0,0,1,.62-.1H295c.22,0,.46,0,.71,0a7.39,7.39,0,0,1,2.2.29V16.27a7.67,7.67,0,0,0-1.27-.05,6,6,0,0,0-5.44,2.85h-.1V16.75h-3.59V32.29h3.59V24.05a5.77,5.77,0,0,1,.26-1.8h0l.06-.15a.37.37,0,0,1,.05-.11A.63.63,0,0,1,291.57,21.81Z" transform="translate(-97.95 -10.87)"/><path class="cls-1" d="M265.66,29.49v-.18a13.78,13.78,0,0,1-3.07.44c-2.08,0-2.52-1.18-2.52-2.28V20.34h5.41V17.27h-5.41v-5h-3.59v5H253.7v3.07h2.78v8a4.12,4.12,0,0,0,1.45,3.6h0a4.77,4.77,0,0,0,2.14.8h.06a4,4,0,0,1,.47.06h.18l.39,0h.61a26.52,26.52,0,0,0,3.88-.35Z" transform="translate(-97.95 -10.87)"/></svg>