<svg id="Layer_1" data-name="Layer 1" xmlns="http://www.w3.org/2000/svg" viewBox="0 0 395.89 43.9"><defs><style>.cls-1{fill:#78949b;}</style></defs><path class="cls-1" d="M226.84,285.22l0,14.1h0v-.07l-.46-.25c-2.88-2.05-5.75-3.9-11.35-3.9-10.15,0-16.5,6.91-16.49,16.25,0,10.43,7.53,16.62,16.25,16.6a16.27,16.27,0,0,0,12.2-5v3.95h7L234,285.21Zm0,32.18h0l-1,.79-.5.37-.57.42-.6.4-.53.36c-.21.13-.44.25-.66.37l-.55.31c-.24.12-.49.23-.75.34s-.36.17-.55.24-.57.19-.86.28-.37.13-.56.18-.68.13-1,.19l-.55.11a13.76,13.76,0,0,1-1.73.1c-.42,0-.84,0-1.25-.06l-.34,0c-.32,0-.63-.1-.94-.16l-.3-.06a10.94,10.94,0,0,1-2.33-.83l-.18-.1a9.75,9.75,0,0,1-1-.57L210,320a9.45,9.45,0,0,1-1.91-1.72l-.06-.07a9.21,9.21,0,0,1-.76-1.06,10.47,10.47,0,0,1-1.48-5.58,11,11,0,0,1,.13-1.75,9.5,9.5,0,0,1,3.72-6.42l.1-.08c.19-.14.4-.27.6-.4l.2-.13.57-.31.29-.15.54-.24.37-.14.51-.18.43-.13.48-.12.51-.11.43-.08.62-.07.34,0c.32,0,.65,0,1,0s.63,0,.94,0h.21l.68.07.33.05.51.07.28.06c.17,0,.35.07.52.12l.25.07.5.14.21.07.5.17.22.09.46.19.2.1.43.2.21.12a2.93,2.93,0,0,1,.39.21,1.18,1.18,0,0,1,.19.11l.38.22.19.13.35.22.19.14.32.22.17.13.31.23.18.14.28.22.18.14.68.56,0,12Z" transform="translate(-198.56 -284.04)"/><path class="cls-1" d="M272.45,306.48c0-4.24-.3-11.47-15.15-11.45-5.73,0-13.93,1.46-15.64,9.83h7.4c.4-1.66,1.77-4.07,8.3-4.08,5.85,0,8,1.65,8,4v1.37h0v0l-.4.05C255,306.78,240,308.4,240,318.62c0,7.57,7.87,9.28,11.94,9.27a25.86,25.86,0,0,0,13.36-4.09h0l.05,0,.06,0a14.24,14.24,0,0,0,.4,3.1h7.28c-.46-.86-.58-2.92-.58-5Zm-7.1,11.88h0l-1.1.65-.53.29-.71.39c-.28.15-.59.29-.89.44l-.49.23c-.36.17-.75.32-1.14.48l-.36.15c-.36.14-.74.26-1.12.38l-.51.18c-.35.1-.73.18-1.1.27-.22.06-.42.12-.65.17-.4.08-.83.13-1.25.19-.2,0-.4.08-.61.1-.64.07-1.29.1-2,.11a10.26,10.26,0,0,1-1.14-.07,6.83,6.83,0,0,1-.68-.13l-.28-.06a5.35,5.35,0,0,1-.77-.28l-.05,0a3.89,3.89,0,0,1-.69-.4h0a3.76,3.76,0,0,1-1.55-3.34,3.93,3.93,0,0,1,.92-2.56h0a5.25,5.25,0,0,1,.59-.56l.22-.18c.18-.13.37-.25.57-.37l.5-.27c.22-.11.44-.22.68-.32l.5-.2.71-.24.48-.15c.42-.13.86-.25,1.35-.36A55.93,55.93,0,0,1,265,311.33l.32,0v7.06Z" transform="translate(-198.56 -284.04)"/><polygon class="cls-1" points="230.09 11.78 222.52 11.79 212.24 34.62 201.83 11.82 194.03 11.83 208.58 42.59 215.69 42.59 215.8 42.34 215.8 42.34 230.32 11.78 230.09 11.78 230.09 11.78"/><path class="cls-1" d="M548.24,321.59a9,9,0,0,1-5.15-3.27A8.11,8.11,0,0,0,548.24,321.59Z" transform="translate(-198.56 -284.04)"/><path class="cls-1" d="M550,294.9c-11.35,0-17.07,7.65-17.06,16.37,0,.5,0,1,.06,1.49h0q.06.75.18,1.47c0,.06,0,.13,0,.19.08.44.17.88.28,1.3l.06.29q.16.6.36,1.17l.12.35c.13.36.28.7.43,1.05.06.13.12.26.19.39.15.32.32.63.5.94l.24.42c.18.28.37.56.56.83l.33.43c.19.25.39.49.61.73s.26.29.4.43.43.44.65.64.32.28.49.42.45.37.69.55l.57.4c.24.16.48.32.73.46s.44.25.66.37.49.26.75.38.51.22.77.32.5.21.76.3.58.19.88.28.5.16.76.22.67.15,1,.22l.74.15c.4.06.81.1,1.21.14l.65.08c.64.05,1.29.07,2,.07,11.41,0,15.52-7.76,16-10.28h-7.8a5.31,5.31,0,0,1-.44.81,2.18,2.18,0,0,1-.22.31c-.11.15-.22.3-.35.45s-.24.26-.36.38l-.33.31c-.17.14-.33.28-.51.41l-.27.18a10,10,0,0,1-4,1.52c-.25,0-.51.07-.77.09a12.3,12.3,0,0,1-1.24.08,16,16,0,0,1-1.62-.14l-.07,0a13,13,0,0,1-1.38-.27c-.33-.08-.64-.18-.93-.28l-.52-.2-.45-.2-.46-.22-.45-.27c-.19-.11-.37-.23-.54-.35l-.45-.34-.29-.26c-.13-.11-.24-.23-.36-.34l-.24-.25c-.16-.18-.32-.37-.46-.56h0a10.82,10.82,0,0,1-1.94-5h.39l26.61,0C567.11,302.16,561.54,295,550,294.9Zm-9.61,12.92c1.22-5.06,4.54-6.71,7.81-7.09.57-.05,1.18-.09,1.69-.09l.8,0c3.52.17,7.33,1.63,8.68,7.07h.21s0,0,0,.06Z" transform="translate(-198.56 -284.04)"/><path class="cls-1" d="M310.75,307.05c0-.58,0-1.14-.07-1.68a13.3,13.3,0,0,0-1.44-5.28,9.17,9.17,0,0,0-1.33-1.86,9.42,9.42,0,0,0-3.58-2.35c-.34-.13-.69-.24-1.05-.34a15.58,15.58,0,0,0-3.4-.53c-.39,0-.79,0-1.19,0a16.88,16.88,0,0,0-5,.69c-.28.09-.55.18-.81.28a13.11,13.11,0,0,0-1.46.66,12.71,12.71,0,0,0-1.85,1.16c-.38.27-.72.55-1.05.83s-.82.74-1.19,1.1l-.13.13h0l0,0V296h-7l.05,30.79h7.11l0-21.21a.86.86,0,0,0,.07-.1A13.09,13.09,0,0,1,290,303h0a9.45,9.45,0,0,1,1.67-.94,13.41,13.41,0,0,1,5.39-1c.32,0,.63,0,.94,0a5.6,5.6,0,0,1,3.71,1.52,3.35,3.35,0,0,1,.43.49,6.25,6.25,0,0,1,.94,1.9,15.64,15.64,0,0,1,.58,4.7l0,17.09h7.11Z" transform="translate(-198.56 -284.04)"/><path class="cls-1" d="M503,307.05c0-.58,0-1.14-.07-1.68a13,13,0,0,0-1.44-5.28,9.14,9.14,0,0,0-1.32-1.86,9.38,9.38,0,0,0-3.59-2.35c-.34-.13-.69-.24-1-.34a15.67,15.67,0,0,0-3.4-.53c-.4,0-.79,0-1.19,0a16.78,16.78,0,0,0-5,.69l-.82.28a14,14,0,0,0-3.31,1.82c-.37.27-.72.55-1,.83s-.82.74-1.19,1.1l-.14.13h0l0,0V296h-7l0,30.79h7.11l0-21.21.08-.1A13.09,13.09,0,0,1,482.2,303h0a9.38,9.38,0,0,1,1.94-1.06,11.9,11.9,0,0,1,2.26-.63,16.28,16.28,0,0,1,2.85-.23c.33,0,.64,0,.94,0a5.62,5.62,0,0,1,3.72,1.52,5.19,5.19,0,0,1,.43.49,7.85,7.85,0,0,1,1.31,3.55,19.92,19.92,0,0,1,.21,3.05l0,17.09H503Z" transform="translate(-198.56 -284.04)"/><rect class="cls-1" x="319.01" y="295.97" width="7.11" height="30.78" transform="translate(-199 -283.59) rotate(-0.08)"/><rect class="cls-1" x="318.97" y="284.05" width="7.11" height="6.31" transform="translate(-198.97 -283.59) rotate(-0.08)"/><rect class="cls-1" x="373.17" y="285.01" width="7.11" height="41.68" transform="translate(-198.99 -283.51) rotate(-0.08)"/><path class="cls-1" d="M340.15,313.32l26.61,0c0-11.12-5.58-18.28-17.16-18.38-11.35,0-17.08,7.65-17.06,16.37,0,.5,0,1,.06,1.49h0q.06.75.18,1.47c0,.06,0,.13,0,.19.08.44.17.88.27,1.3,0,.1.05.2.07.29q.17.6.36,1.17l.12.35c.13.36.28.7.43,1.05l.18.39c.16.32.33.63.5.94.09.14.17.28.25.42s.37.56.56.83l.32.43c.2.25.4.49.62.73s.26.29.4.43.43.44.65.64.32.28.49.42.45.37.69.55.38.27.57.4.48.32.73.46.44.25.66.37.49.26.75.38.51.22.77.32.5.21.76.3.58.19.87.28.51.16.77.22.67.15,1,.22l.74.15c.4.06.8.1,1.21.14l.65.08c.64.05,1.29.07,2,.07,11.41,0,15.52-7.76,16-10.28h-7.8a5.31,5.31,0,0,1-.44.81,2.18,2.18,0,0,1-.22.31c-.11.15-.22.3-.35.45s-.24.26-.36.38l-.34.31c-.16.14-.32.28-.5.41l-.27.18a10,10,0,0,1-4,1.52c-.24,0-.5.07-.76.09a12.3,12.3,0,0,1-1.24.08,16,16,0,0,1-1.62-.14l-.07,0a13,13,0,0,1-1.38-.27c-.33-.08-.64-.18-.94-.28s-.34-.13-.51-.2l-.45-.2-.46-.22-.45-.27c-.19-.11-.37-.23-.54-.35s-.31-.23-.45-.34l-.3-.26-.35-.34-.24-.25c-.16-.18-.32-.37-.46-.56h0a10.89,10.89,0,0,1-1.93-5Zm7.65-12.59c.57-.05,1.18-.09,1.69-.09l.8,0c3.52.17,7.33,1.63,8.68,7.07h.2l0,.06-19.21,0C341.2,302.76,344.53,301.11,347.8,300.73Z" transform="translate(-198.56 -284.04)"/><path class="cls-1" d="M439.51,313.32l26.62,0c0-11.12-5.59-18.28-17.17-18.38-11.35,0-17.07,7.65-17.06,16.37,0,.5,0,1,.07,1.49h0c0,.5.1,1,.17,1.47l0,.19c.07.44.17.88.27,1.3a2.46,2.46,0,0,0,.07.29,11.33,11.33,0,0,0,.36,1.17,3.59,3.59,0,0,0,.12.35c.13.36.27.7.43,1.05l.18.39c.16.32.32.63.5.94.08.14.16.28.25.42s.36.56.56.83l.32.43c.2.25.4.49.61.73s.27.29.4.43.43.44.66.64l.48.42.7.55c.18.14.37.27.57.4s.47.32.72.46l.67.37c.24.13.49.26.75.38s.5.22.76.32.5.21.77.3.58.19.87.28.5.16.77.22.67.15,1,.22l.74.15c.39.06.8.1,1.21.14l.65.08c.63.05,1.28.07,1.95.07,11.41,0,15.53-7.76,16-10.28h-7.79a5.31,5.31,0,0,1-.44.81c-.07.11-.15.21-.22.31s-.23.3-.36.45a4.27,4.27,0,0,1-.36.38c-.1.1-.21.21-.33.31s-.33.28-.51.41l-.27.18a9.91,9.91,0,0,1-4,1.52c-.25,0-.5.07-.76.09s-.81.08-1.24.08a16,16,0,0,1-1.63-.14l-.07,0a14,14,0,0,1-1.38-.27c-.32-.08-.63-.18-.93-.28s-.34-.13-.51-.2l-.46-.2-.46-.22-.45-.27-.53-.35c-.16-.11-.31-.23-.45-.34l-.3-.26-.35-.34-.24-.25c-.17-.18-.32-.37-.47-.56h0a10.78,10.78,0,0,1-1.93-5Zm7.66-12.59c.57-.05,1.18-.09,1.69-.09l.8,0c3.52.17,7.32,1.63,8.67,7.07h.21s0,0,0,.06l-19.2,0C440.57,302.76,443.9,301.11,447.17,300.73Z" transform="translate(-198.56 -284.04)"/><path class="cls-1" d="M581.85,305.7q.12-.24.27-.48l.15-.23c.08-.13.18-.25.27-.37l.15-.19a5.52,5.52,0,0,1,.48-.49l.18-.16a7.54,7.54,0,0,1,.61-.47l.09-.05a5.8,5.8,0,0,1,.7-.39l.19-.1a9.37,9.37,0,0,1,.9-.36l.18-.05a8.39,8.39,0,0,1,1-.25l.18,0a10.82,10.82,0,0,1,1.22-.18l.29,0c.45,0,.92-.07,1.42-.07a14.84,14.84,0,0,1,4.36.57v-7.69a17.21,17.21,0,0,0-2.52-.11c-6.14,0-9.23,3.11-10.77,5.64H581v-4.59h-7.11l0,30.78H581l0-16.33a11.12,11.12,0,0,1,.52-3.56s0,0,0,0a2.49,2.49,0,0,1,.11-.29,1.6,1.6,0,0,1,.1-.23C581.75,305.91,581.8,305.81,581.85,305.7Z" transform="translate(-198.56 -284.04)"/><path class="cls-1" d="M530.56,320.9v-.34a27.94,27.94,0,0,1-6.08.87c-4.13,0-5-2.34-5-4.52l0-14.11h10.72v-6.08l-10.72,0v-10h-7.11v10h-5.5v6.07h5.5l0,15.77c0,3.48,1,5.74,2.89,7.12h0a9.47,9.47,0,0,0,4.23,1.58h.11c.3,0,.62.09.94.12l.35,0,.78.05c.39,0,.79,0,1.21,0a54.72,54.72,0,0,0,7.68-.7V320.9Z" transform="translate(-198.56 -284.04)"/></svg>